<?xml version="1.0" standalone="no"?>
<!DOCTYPE svg PUBLIC "-//W3C//DTD SVG 20010904//EN"
 "http://www.w3.org/TR/2001/REC-SVG-20010904/DTD/svg10.dtd">
<svg version="1.0" xmlns="http://www.w3.org/2000/svg"
 width="400.000000pt" height="400.000000pt" viewBox="0 0 400.000000 400.000000"
 preserveAspectRatio="xMidYMid meet">
<g transform="scale(0.5)">
  <g transform="translate(0.000000,400.000000) scale(0.100000,-0.100000)" fill="#000000" stroke="none">
    <path d="M1500 3750 l0 -250 -250 0 -250 0 0 -250 0 -250 -250 0 -250 0 0
    -250 0 -250 -250 0 -250 0 0 -500 0 -500 500 0 500 0 0 -250 0 -250 -250 0
    -250 0 0 -250 0 -250 -250 0 -250 0 0 -250 0 -250 250 0 250 0 0 250 0 250
    250 0 250 0 0 -250 0 -250 250 0 250 0 0 250 0 250 500 0 500 0 0 -250 0 -250
    250 0 250 0 0 250 0 250 250 0 250 0 0 -250 0 -250 250 0 250 0 0 250 0 250
    -250 0 -250 0 0 250 0 250 -250 0 -250 0 0 250 0 250 500 0 500 0 0 500 0 500
    -250 0 -250 0 0 250 0 250 -250 0 -250 0 0 250 0 250 -250 0 -250 0 0 250 0
    250 -500 0 -500 0 0 -250z m0 -1500 l0 -250 -250 0 -250 0 0 250 0 250 250 0
    250 0 0 -250z m1500 0 l0 -250 -250 0 -250 0 0 250 0 250 250 0 250 0 0 -250z
    m-500 -1000 l0 -250 250 0 250 0 0 -250 0 -250 -250 0 -250 0 0 250 0 250
    -500 0 -500 0 0 -250 0 -250 -250 0 -250 0 0 250 0 250 250 0 250 0 0 250 0
    250 500 0 500 0 0 -250z"/>
  </g>
</g>
</svg>
