<svg xmlns="http://www.w3.org/2000/svg" id="invader" class="hidden-phone">
  <g transform="scale(8, 8)">
    <path d="m 3,0 0,1 -1,0 0,1 -1,0 0,1 -1,0 0,1 0,1 2,0 0,1 1,0 0,-1 2,0 0,1 1,0 0,-1 2,0 0,-1 0,-1 -1,0 0,-1 -1,0 0,-1 -1,0 0,-1 -2,0 z m 3,6 0,1 1,0 0,-1 -1,0 z m 1,1 0,1 1,0 0,-1 -1,0 z m -1,0 -1,0 0,1 1,0 0,-1 z m -1,0 0,-1 -2,0 0,1 2,0 z m -2,0 -1,0 0,1 1,0 0,-1 z m -1,0 0,-1 -1,0 0,1 1,0 z m -1,0 -1,0 0,1 1,0 0,-1 z m 1,-4 1,0 0,1 -1,0 0,-1 z m 3,0 1,0 0,1 -1,0 0,-1 z" id="rect3061" style="fill: black; fill-opacity: 1;"></path>
  </g>
</svg>
